<svg id="Camada_1" data-name="Camada 1" xmlns="http://www.w3.org/2000/svg" xmlns:xlink="http://www.w3.org/1999/xlink" viewBox="0 0 189.92 50.06"><defs><style>.cls-1{fill:none;clip-rule:evenodd;}.cls-2,.cls-5{fill:#fff;}.cls-3{fill:#ad272d;}.cls-3,.cls-5{fill-rule:evenodd;}.cls-4{clip-path:url(#clip-path);}</style><clipPath id="clip-path" transform="translate(-505.04 -75.89)"><path class="cls-1" d="M530.07,125.95a25,25,0,1,0-25-25,25,25,0,0,0,25,25"/></clipPath></defs><title>shibata-supermercados</title><path class="cls-2" d="M670.47,103.59l9.21-24.2h5.92l9.34,24.2H689l-2-5.14h-9.37L676,103.59Zm15.41-9.21-2.71-7.82c-.08-.23-.17-.63-.3-1.19s-.25-1.25-.38-2.07c-.15.78-.28,1.48-.41,2.11s-.23,1-.3,1.25l-2.61,7.72Zm-19.24-10.6v19.81h-5.19V83.78h-5.92v-4.4h17v4.4Zm-33.45,19.81,9.21-24.2h5.92l9.34,24.2h-5.89l-2-5.14h-9.37l-1.69,5.14Zm15.41-9.21-2.71-7.82c-.08-.23-.17-.63-.3-1.19s-.25-1.25-.38-2.07c-.15.78-.28,1.48-.41,2.11s-.23,1-.3,1.25l-2.61,7.72Zm-32,9.21V79.38h4.53a34.85,34.85,0,0,1,5.15.27,9.43,9.43,0,0,1,2.82.9A5.7,5.7,0,0,1,632,85.68a4.7,4.7,0,0,1-1.28,3.45,6.71,6.71,0,0,1-3.8,1.73,7.75,7.75,0,0,1,4.42,1.9,5.24,5.24,0,0,1,1.5,3.92,6.42,6.42,0,0,1-.86,3.27,6,6,0,0,1-2.36,2.29,10.24,10.24,0,0,1-3.14,1,39.3,39.3,0,0,1-6,.32h-4Zm5.18-14.53h1.16a6.18,6.18,0,0,0,3.32-.66,2.49,2.49,0,0,0,1-2.22,2.43,2.43,0,0,0-.94-2.17,6,6,0,0,0-3.26-.64h-1.26Zm0,10.5h2a4.47,4.47,0,0,0,3-.85,3.07,3.07,0,0,0,1-2.49,2.83,2.83,0,0,0-1-2.34,4.52,4.52,0,0,0-2.91-.81h-2.1Zm-15.12,4V79.38h5.17v24.2Zm-25.59,0V79.38h5.17v9.71h10.5V79.38h5.17v24.2h-5.17V93.47h-10.5v10.12Zm-19.76-3.08,2.88-3.25a4.42,4.42,0,0,0,1.76,2.1,4.91,4.91,0,0,0,2.71.77,4.45,4.45,0,0,0,2.88-.86A2.82,2.82,0,0,0,572.57,97q0-1.72-3.52-3.42c-.76-.37-1.36-.67-1.81-.9a13.41,13.41,0,0,1-4.4-3.23,6,6,0,0,1-1.22-3.76A6.07,6.07,0,0,1,564,80.72a9.48,9.48,0,0,1,6.16-1.92,8.68,8.68,0,0,1,3.8.77A7.69,7.69,0,0,1,576.77,82l-3.06,2.92a3.76,3.76,0,0,0-1.44-1.58,4.3,4.3,0,0,0-2.17-.52,3.78,3.78,0,0,0-2.48.77,2.46,2.46,0,0,0-.94,2q0,1.92,3.74,3.5l1.14.5a12.78,12.78,0,0,1,4.55,3.18,6.1,6.1,0,0,1,1.48,4,6.83,6.83,0,0,1-2.32,5.43,9.17,9.17,0,0,1-6.24,2,10.89,10.89,0,0,1-4.76-1A6.43,6.43,0,0,1,561.29,100.5Z" transform="translate(-505.04 -75.89)"/><path class="cls-2" d="M687.47,119.88l2-1a1.24,1.24,0,0,0,.54.82,2.18,2.18,0,0,0,2.09.07.72.72,0,0,0,.36-.64q0-.65-1.3-1.09l-.64-.23a6.44,6.44,0,0,1-2.18-1.19,2,2,0,0,1-.61-1.49,2.57,2.57,0,0,1,1-2.12,4.86,4.86,0,0,1,4.8-.33,2.89,2.89,0,0,1,1.28,1.37l-1.91.95a1.38,1.38,0,0,0-.54-.76,1.69,1.69,0,0,0-1-.26,1.65,1.65,0,0,0-.93.24.72.72,0,0,0-.35.62q0,.67,1.77,1.24l.32.1a5.13,5.13,0,0,1,2.09,1.13,2.25,2.25,0,0,1,.62,1.63,2.52,2.52,0,0,1-1,2.12,4.48,4.48,0,0,1-2.78.78,5.05,5.05,0,0,1-2.37-.51,2.61,2.61,0,0,1-1.31-1.41m-.85-2.87a4.58,4.58,0,0,1-1.41,3.43,5.38,5.38,0,0,1-7.16,0,4.86,4.86,0,0,1,0-6.86,5.37,5.37,0,0,1,7.16,0A4.59,4.59,0,0,1,686.62,117ZM684,117a2.39,2.39,0,0,0-.64-1.75,2.3,2.3,0,0,0-1.71-.65,2.26,2.26,0,0,0-1.71.65,2.75,2.75,0,0,0,0,3.5,2.25,2.25,0,0,0,1.71.66,2.28,2.28,0,0,0,1.71-.66A2.4,2.4,0,0,0,684,117Zm-9.07,4.46h-2.52l0-1.29a3.38,3.38,0,0,1-1.27,1.25,3.8,3.8,0,0,1-1.81.4,3.54,3.54,0,0,1-2.87-1.32,6.26,6.26,0,0,1,0-7,3.7,3.7,0,0,1,3-1.27,3.27,3.27,0,0,1,1.72.45,4.59,4.59,0,0,1,1.39,1.41c0-.22-.05-.46-.07-.72s0-.57,0-.91v-5.1h2.46ZM672.53,117a2.81,2.81,0,0,0-.61-1.91,2,2,0,0,0-1.63-.7,2.11,2.11,0,0,0-1.67.69,3.3,3.3,0,0,0,0,3.8,2.08,2.08,0,0,0,1.66.69,2.1,2.1,0,0,0,1.67-.68A2.77,2.77,0,0,0,672.53,117Zm-8.8,4.49h-2.52l0-1.29a3.38,3.38,0,0,1-1.27,1.25,3.8,3.8,0,0,1-1.81.4,3.54,3.54,0,0,1-2.87-1.32,6.24,6.24,0,0,1,0-7,3.7,3.7,0,0,1,3-1.26,3.38,3.38,0,0,1,1.75.44,3.6,3.6,0,0,1,1.26,1.33V112.5h2.46ZM661.35,117a2.81,2.81,0,0,0-.61-1.91,2,2,0,0,0-1.63-.7,2.09,2.09,0,0,0-1.67.7,2.82,2.82,0,0,0-.61,1.91,2.76,2.76,0,0,0,.6,1.89,2.38,2.38,0,0,0,3.32,0A2.77,2.77,0,0,0,661.35,117ZM653,121.18a4.24,4.24,0,0,1-1.11.47,5.13,5.13,0,0,1-1.28.15,4.64,4.64,0,0,1-3.45-1.34,4.76,4.76,0,0,1-1.33-3.5,4.62,4.62,0,0,1,1.34-3.43,4.73,4.73,0,0,1,3.47-1.33,5.49,5.49,0,0,1,1.28.14,4,4,0,0,1,1.08.43l0,2.61a2.87,2.87,0,0,0-2.09-.88,2.34,2.34,0,0,0-1.75.67,2.74,2.74,0,0,0,0,3.58,2.46,2.46,0,0,0,1.81.67,2.6,2.6,0,0,0,1.12-.23,2.7,2.7,0,0,0,.9-.71Zm-11.46-6.38a4.11,4.11,0,0,1,1.12-2,2.65,2.65,0,0,1,1.82-.65,6,6,0,0,1,.81.09l.16,0-.39,2.79a3.13,3.13,0,0,0-.59-.18,3.08,3.08,0,0,0-.62-.06,2.13,2.13,0,0,0-1.71.61,3.13,3.13,0,0,0-.52,2v3.94h-2.6V112.5h2.56Zm-4.24,2.82h-6.72a2.31,2.31,0,0,0,.7,1.44,2.17,2.17,0,0,0,1.48.48,2.57,2.57,0,0,0,1.23-.27,2.26,2.26,0,0,0,.86-.83l2.1,1a4.82,4.82,0,0,1-1.77,1.75,5.08,5.08,0,0,1-2.47.57,4.6,4.6,0,0,1-3.44-1.29,5.3,5.3,0,0,1,.06-6.95,4.54,4.54,0,0,1,3.4-1.36,4.49,4.49,0,0,1,3.37,1.27,4.76,4.76,0,0,1,1.24,3.47c0,.08,0,.16,0,.26S637.35,117.43,637.33,117.61ZM634.76,116a1.92,1.92,0,0,0-.62-1.28,2,2,0,0,0-1.38-.43,2.12,2.12,0,0,0-1.4.43,2,2,0,0,0-.67,1.28Zm-20.35,5.4h-2.6V112.5h2.6v1.4a4.45,4.45,0,0,1,1.36-1.29,3.27,3.27,0,0,1,1.65-.41,3.24,3.24,0,0,1,1.81.46,2.45,2.45,0,0,1,1,1.38,4.46,4.46,0,0,1,1.41-1.37,3.35,3.35,0,0,1,1.73-.46,3.41,3.41,0,0,1,1.61.35,2.42,2.42,0,0,1,1,1.05,3.12,3.12,0,0,1,.27.87,9.81,9.81,0,0,1,.08,1.47v5.51h-2.6V117a4.69,4.69,0,0,0-.33-2.17,1.26,1.26,0,0,0-1.16-.54,1.57,1.57,0,0,0-1.45.75,4.93,4.93,0,0,0-.45,2.44v3.94h-2.6V117a4.88,4.88,0,0,0-.31-2.13,1.11,1.11,0,0,0-1.06-.56,1.62,1.62,0,0,0-1.5.75,4.8,4.8,0,0,0-.46,2.42ZM607,114.8a4.11,4.11,0,0,1,1.12-2,2.65,2.65,0,0,1,1.82-.65,6,6,0,0,1,.81.09l.16,0-.39,2.79a3.14,3.14,0,0,0-.59-.18,3.08,3.08,0,0,0-.62-.06,2.13,2.13,0,0,0-1.71.61,3.13,3.13,0,0,0-.52,2v3.94h-2.6V112.5H607Zm-4.24,2.82H596a2.31,2.31,0,0,0,.7,1.44,2.17,2.17,0,0,0,1.48.48,2.57,2.57,0,0,0,1.23-.27,2.26,2.26,0,0,0,.86-.83l2.1,1a4.82,4.82,0,0,1-1.77,1.75,5.08,5.08,0,0,1-2.47.57,4.6,4.6,0,0,1-3.44-1.29,5.3,5.3,0,0,1,.06-6.95,4.54,4.54,0,0,1,3.4-1.36,4.49,4.49,0,0,1,3.37,1.27,4.76,4.76,0,0,1,1.24,3.47c0,.08,0,.16,0,.26S602.76,117.43,602.74,117.61ZM600.17,116a1.93,1.93,0,0,0-.62-1.28,2,2,0,0,0-1.38-.43,2.12,2.12,0,0,0-1.4.43,2,2,0,0,0-.67,1.28Zm-17.44,9.47v-13h2.49V114a3.57,3.57,0,0,1,1.25-1.34,3.31,3.31,0,0,1,1.73-.44,3.7,3.7,0,0,1,3,1.26,5.26,5.26,0,0,1,1.08,3.52,5.33,5.33,0,0,1-1.09,3.5,3.52,3.52,0,0,1-2.85,1.32,3.82,3.82,0,0,1-1.81-.4,3.41,3.41,0,0,1-1.27-1.25c0,.22.05.47.07.73s0,.57,0,.91v3.71ZM585.1,117a2.76,2.76,0,0,0,.6,1.89,2.39,2.39,0,0,0,3.33,0,2.76,2.76,0,0,0,.6-1.89A2.82,2.82,0,0,0,589,115a2.1,2.1,0,0,0-1.67-.7,2,2,0,0,0-1.64.7A2.81,2.81,0,0,0,585.1,117Zm-11.16-4.46v4.7a2.5,2.5,0,0,0,.46,1.7,2.45,2.45,0,0,0,3,0,2.52,2.52,0,0,0,.46-1.69v-4.7h2.6v4.7a4.77,4.77,0,0,1-1.11,3.48,4.62,4.62,0,0,1-3.42,1.12,4.73,4.73,0,0,1-3.47-1.11,4.78,4.78,0,0,1-1.11-3.49v-4.7Zm-11.7,7.38,2-1a1.24,1.24,0,0,0,.54.82,2.18,2.18,0,0,0,2.09.07.72.72,0,0,0,.36-.64q0-.65-1.29-1.09l-.64-.23a6.45,6.45,0,0,1-2.18-1.19,2,2,0,0,1-.61-1.49,2.57,2.57,0,0,1,1-2.12,4.86,4.86,0,0,1,4.8-.33,2.89,2.89,0,0,1,1.28,1.37l-1.91.95a1.38,1.38,0,0,0-.54-.76,1.68,1.68,0,0,0-1-.26,1.65,1.65,0,0,0-.93.24.72.72,0,0,0-.35.62q0,.67,1.77,1.24l.32.1a5.14,5.14,0,0,1,2.09,1.13,2.25,2.25,0,0,1,.62,1.63,2.52,2.52,0,0,1-1,2.12,4.48,4.48,0,0,1-2.78.78,5.05,5.05,0,0,1-2.37-.51A2.61,2.61,0,0,1,562.24,119.88Z" transform="translate(-505.04 -75.89)"/><path class="cls-3" d="M530.07,125.95a25,25,0,1,0-25-25,25,25,0,0,0,25,25" transform="translate(-505.04 -75.89)"/><g class="cls-4"><path class="cls-5" d="M511.11,118.58a1.92,1.92,0,0,1-.22-1.44c4.07,1.19,10.71-.91,11.21-8.69.38-6-.16-15.69,1.71-20.72,3.39-9.1,12-9.94,17.17-9.09.63.1,3.76.38,4.27.52a4.58,4.58,0,0,1,2.93,1c-.82-.13-1.53.08-2.42,0a27.47,27.47,0,0,0-4.38-.46c-14,1.06-14.29,11-14.64,20.91-.18,4.94-.45,9.86-2.42,13.49a7.81,7.81,0,0,1-3.56,3.27,15.22,15.22,0,0,1-6.09,1.35,17.77,17.77,0,0,1-3,0l-.55-.07m3.49,2.76a17.12,17.12,0,0,1-2-1.3,16,16,0,0,0,2.12.05,16.61,16.61,0,0,0,6.65-1.48,9.19,9.19,0,0,0,4.18-3.86c2.12-3.91,2.4-9,2.58-14.1.29-8.16.49-16.34,9.22-18.86,4.27-1.23,7.71-.93,11.89-.23a6.91,6.91,0,0,1,.47,1.39,13.24,13.24,0,0,0-9.85.5c-7.41,3.4-7.19,11.31-7.42,19.21-.13,4.57-.72,9.12-2.31,12.67a8.56,8.56,0,0,1-4.51,4.27C522.1,121.19,518.37,121.39,514.6,121.34Zm35.21-36.22c-4.16-1.3-10.85.88-11.31,8.63-.34,5.64,0,12.78-.93,17.84-2.37,12.37-14.27,12.8-18.14,12-.11,0-1.15-.51-2.24-1a20.92,20.92,0,0,0,9-1.68,9.92,9.92,0,0,0,5.21-5c1.71-3.8,2.29-8.5,2.43-13.2.25-8.49,0-17,10-19.05a11.82,11.82,0,0,1,6,.59C549.83,84.51,549.83,84.81,549.81,85.12Z" transform="translate(-505.04 -75.89)"/></g></svg>